HIERARCHY
ROOT Hips
{
    OFFSET 0.000000 0.000000 0.000000
    CHANNELS 6 Xposition Yposition Zposition Zrotation Xrotation Yrotation
    JOINT Spine
    {
        OFFSET -0.000000 14.517291 0.000000
        CHANNELS 3 Zrotation Xrotation Yrotation
        JOINT Spine1
        {
            OFFSET -0.000000 37.558300 0.000000
            CHANNELS 3 Zrotation Xrotation Yrotation
            JOINT Neck
            {
                OFFSET -0.000000 37.404057 3.400369
                CHANNELS 3 Zrotation Xrotation Yrotation
                JOINT Head
                {
                    OFFSET -0.000000 24.785618 -3.540803
                    CHANNELS 3 Zrotation Xrotation Yrotation
                    End Site
                    {
                        OFFSET -0.000000 35.408028 0.000000
                    }
                }
            }
            JOINT LeftShoulder
            {
                OFFSET 6.992933 33.973492 -0.192664
                CHANNELS 3 Zrotation Xrotation Yrotation
                JOINT LeftArm
                {
                    OFFSET 21.527611 0.000000 0.000000
                    CHANNELS 3 Zrotation Xrotation Yrotation
                    JOINT LeftForeArm
                    {
                        OFFSET 56.353916 0.000000 0.000000
                        CHANNELS 3 Zrotation Xrotation Yrotation
                        JOINT LeftHand
                        {
                            OFFSET 47.774071 0.000000 0.000000
                            CHANNELS 3 Zrotation Xrotation Yrotation
                            End Site
                            {
                                OFFSET 26.556021 0.000000 0.000000
                            }
                        }
                    }
                }
            }
            JOINT RightShoulder
            {
                OFFSET -7.065357 33.973492 -0.192664
                CHANNELS 3 Zrotation Xrotation Yrotation
                JOINT RightArm
                {
                    OFFSET -21.527611 0.000000 0.000000
                    CHANNELS 3 Zrotation Xrotation Yrotation
                    JOINT RightForeArm
                    {
                        OFFSET -56.353916 0.000000 0.000000
                        CHANNELS 3 Zrotation Xrotation Yrotation
                        JOINT RightHand
                        {
                            OFFSET -47.774071 0.000000 0.000000
                            CHANNELS 3 Zrotation Xrotation Yrotation
                            End Site
                            {
                                OFFSET -26.556021 0.000000 0.000000
                            }
                        }
                    }
                }
            }
        }
    }
    JOINT LeftUpLeg
    {
        OFFSET 17.704014 0.000000 0.000000
        CHANNELS 3 Zrotation Xrotation Yrotation
        JOINT LeftLeg
        {
            OFFSET -0.000000 -81.181816 0.000000
            CHANNELS 3 Zrotation Xrotation Yrotation
            JOINT LeftFoot
            {
                OFFSET -0.000000 -62.821102 0.000000
                CHANNELS 3 Zrotation Xrotation Yrotation
                JOINT LeftToeBase
                {
                    OFFSET -0.000000 -11.507608 26.556021
                    CHANNELS 3 Zrotation Xrotation Yrotation
                    End Site
                    {
                        OFFSET -0.000000 0.000000 7.081605
                    }
                }
            }
        }
    }
    JOINT RightUpLeg
    {
        OFFSET -17.704014 0.000000 0.000000
        CHANNELS 3 Zrotation Xrotation Yrotation
        JOINT RightLeg
        {
            OFFSET -0.000000 -81.181816 0.000000
            CHANNELS 3 Zrotation Xrotation Yrotation
            JOINT RightFoot
            {
                OFFSET -0.000000 -62.821102 0.000000
                CHANNELS 3 Zrotation Xrotation Yrotation
                JOINT RightToeBase
                {
                    OFFSET -0.000000 -11.507608 26.556021
                    CHANNELS 3 Zrotation Xrotation Yrotation
                    End Site
                    {
                        OFFSET -0.000000 0.000000 7.081605
                    }
                }
            }
        }
    }
}
MOTION
Frames:    9
Frame Time:    0.008333
1.250690    153.684219    -77.074554    1.616549    -0.594863    34.961987    -0.977260    2.562335    -2.143745    -5.056376    2.451247    -0.612946    6.422949    3.859441    -13.926172    10.180975    -0.723098    -13.749473    5.066917    8.306703    -18.186449    -26.328182    24.335430    -58.321426    0.956768    -13.209278    -97.749954    11.589090    -13.194514    -10.619597    -8.248180    -1.062304    -1.915680    25.905941    -25.398500    55.110512    -18.467005    -12.360085    63.087719    -2.305393    -1.731569    35.968197    21.304340    -13.139277    -4.231199    -14.192151    47.681126    -17.875292    -12.201205    -26.377888    29.237381    0.000000    0.000000    0.000000    -8.732409    -24.305878    -2.791397    19.018501    42.390377    -12.251046    -8.498019    -15.590835    -23.373995    0.000000    0.000000    0.000000    
1.403133    153.673904    -77.251259    1.555839    -0.680555    34.959816    -0.987118    2.526909    -2.132309    -4.988459    2.474926    -0.609470    6.432341    3.900561    -13.966291    10.242987    -0.745899    -13.779095    5.085116    8.295874    -18.203573    -26.317312    24.365000    -58.309109    1.025360    -13.177900    -97.696503    11.637488    -13.094539    -10.644871    -8.223766    -1.090912    -1.936193    25.842869    -25.314276    55.040791    -18.554472    -12.353050    63.003452    -2.293351    -1.686100    36.067604    21.122499    -13.038715    -4.154881    -14.082062    47.667469    -18.113953    -12.462069    -26.565502    28.813305    0.000000    0.000000    0.000000    -8.701726    -24.263073    -2.828681    18.915787    42.339001    -12.157699    -8.441165    -15.546502    -23.352924    0.000000    0.000000    0.000000    
1.575620    153.666351    -77.445259    1.492265    -0.752950    34.967155    -0.970362    2.489750    -2.140335    -4.953686    2.486058    -0.612294    6.446506    3.881733    -13.969858    10.276404    -0.704631    -13.784343    5.096367    8.319674    -18.200155    -26.333260    24.351414    -58.289024    1.019127    -13.132875    -97.737114    11.588027    -13.046387    -10.596465    -8.188727    -1.049381    -1.963217    25.873171    -25.372442    55.072002    -18.463112    -12.302380    63.017273    -2.297758    -1.689041    35.996964    20.942564    -12.953679    -4.139611    -14.073688    47.606907    -18.262007    -12.648707    -26.658354    28.520966    0.000000    0.000000    0.000000    -8.705709    -24.239311    -2.841050    18.888830    42.291828    -12.045778    -8.387486    -15.463543    -23.426311    0.000000    0.000000    0.000000    
1.751396    153.660858    -77.646507    1.423117    -0.830722    34.969795    -0.952898    2.450843    -2.164319    -4.909859    2.502417    -0.620315    6.424370    3.855976    -13.978089    10.333638    -0.637346    -13.789604    5.090703    8.298471    -18.147453    -26.328835    24.403315    -58.278011    0.996849    -13.082162    -97.714676    11.643900    -13.035593    -10.691172    -8.216374    -1.072901    -1.947523    25.866467    -25.284943    54.997284    -18.550617    -12.317573    62.955330    -2.286430    -1.661927    36.114178    20.761997    -12.872221    -4.056787    -13.924736    47.557671    -18.644257    -12.883236    -26.734312    28.301092    0.000000    0.000000    0.000000    -8.691573    -24.223667    -2.844853    18.837559    42.248211    -11.994714    -8.312066    -15.373695    -23.443504    0.000000    0.000000    0.000000    
1.930402    153.651260    -77.873055    1.344562    -0.883113    34.977844    -0.952560    2.401123    -2.178584    -4.845755    2.490906    -0.626796    6.406106    3.905971    -14.014794    10.396427    -0.646877    -13.813077    5.077198    8.334455    -18.153854    -26.339571    24.373144    -58.233036    0.936222    -13.037321    -97.770088    11.566019    -13.053266    -10.721697    -8.191968    -0.998531    -1.947397    25.836885    -25.323967    55.004887    -18.504568    -12.316780    62.934120    -2.324268    -1.704851    36.002300    20.590687    -12.816644    -3.998131    -13.872458    47.424915    -18.926880    -13.062181    -26.721554    28.171198    0.000000    0.000000    0.000000    -8.684402    -24.250101    -2.903476    18.716785    42.243919    -11.906479    -8.196791    -15.296544    -23.409807    0.000000    0.000000    0.000000    
2.138169    153.638794    -78.104347    1.296221    -0.946322    34.979416    -0.929532    2.377270    -2.194615    -4.861530    2.497106    -0.631361    6.487179    3.834908    -14.008466    10.327430    -0.578231    -13.836040    5.106791    8.315689    -18.121870    -26.342104    24.436176    -58.214138    1.017365    -13.068083    -97.796432    11.459880    -12.984284    -10.734921    -8.160396    -1.029397    -1.973758    25.756491    -25.199383    54.933380    -18.594305    -12.378366    62.865654    -2.312708    -1.724648    36.091812    20.407120    -12.725060    -3.985331    -13.952719    47.288578    -19.182699    -12.608874    -26.639042    28.270369    0.000000    0.000000    0.000000    -8.708089    -24.256166    -2.931577    18.643253    42.241394    -11.893951    -8.082637    -15.226969    -23.366693    0.000000    0.000000    0.000000    
2.356651    153.621704    -78.354622    1.257749    -1.001644    34.983845    -0.946806    2.351751    -2.198252    -4.802922    2.483167    -0.634453    6.425570    3.890281    -14.033713    10.428911    -0.598466    -13.835678    5.108052    8.356935    -18.167206    -26.369034    24.429646    -58.149845    1.035375    -13.083207    -97.840454    11.439072    -12.972418    -10.693040    -8.173914    -0.961092    -1.972471    25.768320    -25.265820    54.931057    -18.513803    -12.338944    62.861282    -2.348440    -1.745072    35.957752    20.208712    -12.630757    -3.961596    -14.065286    47.117214    -19.330853    -11.900926    -26.517464    28.520981    0.000000    0.000000    0.000000    -8.768832    -24.260315    -2.922536    18.642538    42.204823    -11.937893    -8.004287    -15.140371    -23.333494    0.000000    0.000000    0.000000    
2.589836    153.599289    -78.612564    1.237949    -1.067944    34.993160    -0.934991    2.355340    -2.203858    -4.828203    2.485142    -0.635620    6.470815    3.906192    -14.068829    10.441947    -0.642392    -13.870840    5.132295    8.327944    -18.150091    -26.382801    24.476067    -58.134884    1.024085    -13.073130    -97.866295    11.426362    -12.977712    -10.739409    -8.115850    -0.979486    -2.027039    25.688021    -25.203482    54.903381    -18.545565    -12.358805    62.789124    -2.267573    -1.738031    36.078438    19.999798    -12.501338    -3.908170    -14.218998    46.927891    -19.430561    -10.820672    -26.362822    28.939764    0.000000    0.000000    0.000000    -8.858137    -24.233959    -2.884258    18.655312    42.072639    -11.938039    -7.923490    -14.967873    -23.328806    0.000000    0.000000    0.000000    
2.829193    153.565887    -78.882690    1.201441    -1.137028    34.985313    -0.930982    2.354138    -2.191122    -4.817064    2.462216    -0.632546    6.512230    3.935119    -14.095745    10.432516    -0.678394    -13.900188    5.154557    8.366321    -18.190327    -26.391872    24.443281    -58.094662    1.067060    -13.049963    -97.864159    11.416413    -12.910595    -10.790688    -8.094687    -0.992506    -2.020344    25.659994    -25.226259    54.827736    -18.469452    -12.305782    62.791153    -2.254306    -1.725255    35.995667    19.830351    -12.389318    -3.822879    -14.471695    46.817566    -19.383644    -9.410291    -26.248774    29.623800    0.000000    0.000000    0.000000    -8.914033    -24.233877    -2.879346    18.640688    42.057159    -11.923758    -7.865401    -14.896351    -23.340668    0.000000    0.000000    0.000000    
